# Blender v2.76 (sub 0) OBJ File: 'sword.blend'
# www.blender.org
#mtllib sword.mtl
o Cube
v 3.125868 0.727291 0.019860
v 3.125868 0.727291 -0.019860
v 3.079873 0.764697 0.065880
v 3.079873 0.764697 -0.065879
v 3.079873 0.828020 0.065880
v 3.079873 0.828020 -0.065879
v 3.110765 0.849550 0.034989
v 3.110765 0.849550 -0.034988
v 3.110765 1.552931 0.034989
v 3.110765 1.552931 -0.034988
v 3.068952 1.590747 0.076801
v 3.068952 1.590747 -0.076800
v 3.098713 1.624781 0.047040
v 3.098713 1.624781 -0.047040
v 3.028265 1.677669 0.117488
v 3.028265 1.677669 -0.117488
v 2.796983 1.942105 0.334545
v 2.796983 1.942105 -0.334545
v 2.911328 2.031466 0.234425
v 2.911329 2.031466 -0.234424
v 2.981793 2.254869 0.163960
v 2.981793 2.254869 -0.163959
v 2.981793 2.529335 0.163960
v 2.981793 2.529335 -0.163959
v 2.940179 2.711705 0.205574
v 2.940179 2.711705 -0.205574
v 2.852745 2.889515 0.293008
v 2.852745 2.889515 -0.293008
v 2.947927 3.174012 0.197826
v 2.947927 3.174012 -0.197825
v 3.039252 4.111717 0.106501
v 3.039252 4.111717 -0.106501
v 3.135154 4.777283 0.010600
v 3.135154 4.777283 -0.010599
v 2.967630 1.547642 0.056453
v 2.967630 1.547642 -0.056453
v 2.857863 1.674703 0.160749
v 2.857863 1.674703 -0.160749
v 2.903508 1.319846 0.006571
v 2.903508 1.319846 -0.006571
v 2.892952 1.303888 0.018710
v 2.892952 1.303888 -0.018710
v 3.175770 0.727291 0.019860
v 3.175770 0.727291 -0.019860
v 3.221765 0.764697 0.065880
v 3.221765 0.764697 -0.065879
v 3.221765 0.828020 0.065880
v 3.221765 0.828020 -0.065879
v 3.190874 0.849550 0.034989
v 3.190874 0.849550 -0.034988
v 3.190874 1.552931 0.034989
v 3.190874 1.552931 -0.034988
v 3.232686 1.590747 0.076801
v 3.232686 1.590747 -0.076800
v 3.202925 1.624781 0.047040
v 3.202925 1.624781 -0.047040
v 3.273373 1.677669 0.117488
v 3.273373 1.677669 -0.117488
v 3.504655 1.942105 0.334545
v 3.504655 1.942105 -0.334545
v 3.390310 2.031466 0.234425
v 3.390310 2.031466 -0.234424
v 3.319845 2.254869 0.163960
v 3.319845 2.254869 -0.163959
v 3.319845 2.529335 0.163960
v 3.319845 2.529335 -0.163959
v 3.361459 2.711705 0.205574
v 3.361459 2.711705 -0.205574
v 3.448894 2.889515 0.293008
v 3.448893 2.889515 -0.293008
v 3.353711 3.174012 0.197826
v 3.353711 3.174012 -0.197825
v 3.262386 4.111717 0.106501
v 3.262386 4.111717 -0.106501
v 3.166485 4.777283 0.010600
v 3.166485 4.777283 -0.010599
v 3.150819 0.727291 -0.019860
v 3.150819 0.727291 0.019860
v 3.150819 0.764697 -0.065879
v 3.150819 0.764697 0.065880
v 3.150819 0.828020 -0.065879
v 3.150819 0.828020 0.065880
v 3.150819 0.849550 -0.034988
v 3.150819 0.849550 0.034989
v 3.150819 1.552931 -0.034988
v 3.150819 1.552931 0.034989
v 3.150819 1.590747 -0.076800
v 3.150819 1.590747 0.076801
v 3.150819 1.624781 -0.047040
v 3.150819 1.624781 0.047041
v 3.150819 1.677669 -0.117488
v 3.150819 1.677669 0.117489
v 3.150819 1.942105 -0.334545
v 3.150819 1.942105 0.334546
v 3.150819 2.031466 -0.234424
v 3.150819 2.031466 0.234425
v 3.150819 2.254869 -0.163959
v 3.150819 2.254869 0.163960
v 3.150819 2.529335 -0.163959
v 3.150819 2.529335 0.163960
v 3.150819 2.711705 -0.205574
v 3.150819 2.711705 0.205574
v 3.150819 2.889515 -0.293008
v 3.150819 2.889515 0.293008
v 3.150819 3.174012 -0.197825
v 3.150819 3.174012 0.197826
v 3.150819 4.111717 -0.106501
v 3.150819 4.111717 0.106501
v 3.150819 4.777283 -0.010599
v 3.150819 4.777283 0.010600
v 3.334008 1.547642 0.056453
v 3.334008 1.547642 -0.056453
v 3.443775 1.674703 0.160749
v 3.443775 1.674703 -0.160749
v 3.398130 1.319846 0.006571
v 3.398130 1.319846 -0.006571
v 3.408686 1.303888 0.018710
v 3.408686 1.303888 -0.018710
vn 0.000000 -1.000000 0.000000
vn -1.000000 0.000000 0.000000
vn -0.000000 -0.776000 0.630700
vn -0.631000 -0.775800 0.000000
vn 0.000000 -0.776000 -0.630700
vn -0.571800 0.820400 0.000000
vn 0.000000 0.000000 -1.000000
vn 0.000000 0.820400 -0.571800
vn -0.752800 0.658300 0.000000
vn -0.670800 -0.741700 0.000000
vn 0.000000 -0.741700 -0.670800
vn 0.000000 0.658300 -0.752800
vn 0.221800 -0.495900 -0.839600
vn -0.600400 -0.799700 0.000000
vn 0.000000 -0.799700 -0.600400
vn 0.000000 0.746100 -0.665900
vn 0.000000 -0.634500 -0.773000
vn -0.615800 0.787900 -0.000000
vn -0.953700 0.300800 -0.000000
vn 0.000000 0.300800 -0.953700
vn -0.974900 -0.222500 0.000000
vn 0.000000 -0.222500 -0.974900
vn -0.948300 0.317300 -0.000000
vn -0.897400 -0.441300 -0.000000
vn 0.000000 -0.441300 -0.897400
vn 0.000000 0.317300 -0.948300
vn -0.995300 0.096900 0.000000
vn 0.000000 0.096900 -0.995300
vn 0.000000 1.000000 0.000000
vn -0.989800 0.142600 0.000000
vn 0.000000 0.142600 -0.989800
vn -0.000000 0.142600 0.989800
vn -0.000000 0.317300 0.948300
vn -0.000000 0.096900 0.995300
vn -0.000000 -0.441300 0.897400
vn -0.000000 0.000000 1.000000
vn -0.000000 -0.222500 0.974900
vn -0.000000 0.746100 0.665900
vn -0.000000 0.300800 0.953700
vn -0.000000 -0.634500 0.773000
vn -0.000000 0.658300 0.752800
vn -0.000000 -0.799700 0.600400
vn -0.000000 -0.741700 0.670800
vn -0.000000 0.820400 0.571800
vn 0.518500 -0.283800 0.806600
vn -0.975000 -0.222000 -0.000000
vn 0.221800 -0.495900 0.839600
vn 0.906300 -0.422600 0.000000
vn 0.834000 -0.551700 0.000000
vn 0.962600 -0.271000 0.000000
vn 0.518500 -0.283800 -0.806600
vn -0.995600 -0.094200 -0.000000
vn 1.000000 0.000000 0.000000
vn 0.631000 -0.775800 0.000000
vn 0.571800 0.820400 0.000000
vn 0.752800 0.658300 0.000000
vn 0.670800 -0.741700 0.000000
vn -0.221800 -0.495900 -0.839600
vn 0.600400 -0.799700 0.000000
vn 0.615800 0.787900 -0.000000
vn 0.953700 0.300800 -0.000000
vn 0.974900 -0.222500 0.000000
vn 0.948300 0.317300 -0.000000
vn 0.897400 -0.441300 -0.000000
vn 0.995300 0.096900 0.000000
vn 0.989800 0.142600 0.000000
vn -0.518500 -0.283800 0.806600
vn 0.975000 -0.222000 -0.000000
vn -0.221800 -0.495900 0.839600
vn -0.906300 -0.422600 0.000000
vn -0.834000 -0.551700 0.000000
vn -0.962600 -0.271000 0.000000
vn -0.518500 -0.283800 -0.806600
vn 0.995600 -0.094200 -0.000000
#usemtl Material
#s off

g hardtofindiumSword
f 77//1 78//1 1//1 2//1
f 4//2 3//2 5//2 6//2
f 78//3 80//3 3//3 1//3
f 1//4 3//4 4//4 2//4
f 79//5 77//5 2//5 4//5
f 6//6 5//6 7//6 8//6
f 79//7 4//7 6//7 81//7
f 81//8 6//8 8//8 83//8
f 8//2 7//2 9//2 10//2
f 83//7 8//7 10//7 85//7
f 12//9 11//9 13//9 14//9
f 10//10 9//10 11//10 12//10
f 85//11 10//11 12//11 87//11
f 87//12 12//12 14//12 89//12
f 18//13 16//13 36//13 38//13
f 14//14 13//14 15//14 16//14
f 89//15 14//15 16//15 91//15
f 93//16 18//16 20//16 95//16
f 91//17 16//17 18//17 93//17
f 18//18 17//18 19//18 20//18
f 22//2 21//2 23//2 24//2
f 20//19 19//19 21//19 22//19
f 95//20 20//20 22//20 97//20
f 97//7 22//7 24//7 99//7
f 24//21 23//21 25//21 26//21
f 99//22 24//22 26//22 101//22
f 28//23 27//23 29//23 30//23
f 26//24 25//24 27//24 28//24
f 101//25 26//25 28//25 103//25
f 103//26 28//26 30//26 105//26
f 30//27 29//27 31//27 32//27
f 105//28 30//28 32//28 107//28
f 109//29 34//29 33//29 110//29
f 32//30 31//30 33//30 34//30
f 107//31 32//31 34//31 109//31
f 31//32 108//32 110//32 33//32
f 27//33 104//33 106//33 29//33
f 29//34 106//34 108//34 31//34
f 25//35 102//35 104//35 27//35
f 21//36 98//36 100//36 23//36
f 23//37 100//37 102//37 25//37
f 17//38 94//38 96//38 19//38
f 19//39 96//39 98//39 21//39
f 15//40 92//40 94//40 17//40
f 11//41 88//41 90//41 13//41
f 13//42 90//42 92//42 15//42
f 9//43 86//43 88//43 11//43
f 5//44 82//44 84//44 7//44
f 7//36 84//36 86//36 9//36
f 3//36 80//36 82//36 5//36
f 35//45 37//45 41//45 39//45
f 17//46 18//46 38//46 37//46
f 15//47 17//47 37//47 35//47
f 16//48 15//48 35//48 36//48
f 40//49 39//49 41//49 42//49
f 36//50 35//50 39//50 40//50
f 38//51 36//51 40//51 42//51
f 37//52 38//52 42//52 41//52
f 77//1 44//1 43//1 78//1
f 46//53 48//53 47//53 45//53
f 78//3 43//3 45//3 80//3
f 43//54 44//54 46//54 45//54
f 79//5 46//5 44//5 77//5
f 48//55 50//55 49//55 47//55
f 79//7 81//7 48//7 46//7
f 81//8 83//8 50//8 48//8
f 50//53 52//53 51//53 49//53
f 83//7 85//7 52//7 50//7
f 54//56 56//56 55//56 53//56
f 52//57 54//57 53//57 51//57
f 85//11 87//11 54//11 52//11
f 87//12 89//12 56//12 54//12
f 60//58 114//58 112//58 58//58
f 56//59 58//59 57//59 55//59
f 89//15 91//15 58//15 56//15
f 93//16 95//16 62//16 60//16
f 91//17 93//17 60//17 58//17
f 60//60 62//60 61//60 59//60
f 64//53 66//53 65//53 63//53
f 62//61 64//61 63//61 61//61
f 95//20 97//20 64//20 62//20
f 97//7 99//7 66//7 64//7
f 66//62 68//62 67//62 65//62
f 99//22 101//22 68//22 66//22
f 70//63 72//63 71//63 69//63
f 68//64 70//64 69//64 67//64
f 101//25 103//25 70//25 68//25
f 103//26 105//26 72//26 70//26
f 72//65 74//65 73//65 71//65
f 105//28 107//28 74//28 72//28
f 109//29 110//29 75//29 76//29
f 74//66 76//66 75//66 73//66
f 107//31 109//31 76//31 74//31
f 73//32 75//32 110//32 108//32
f 69//33 71//33 106//33 104//33
f 71//34 73//34 108//34 106//34
f 67//35 69//35 104//35 102//35
f 63//36 65//36 100//36 98//36
f 65//37 67//37 102//37 100//37
f 59//38 61//38 96//38 94//38
f 61//39 63//39 98//39 96//39
f 57//40 59//40 94//40 92//40
f 53//41 55//41 90//41 88//41
f 55//42 57//42 92//42 90//42
f 51//43 53//43 88//43 86//43
f 47//44 49//44 84//44 82//44
f 49//36 51//36 86//36 84//36
f 45//36 47//36 82//36 80//36
f 111//67 115//67 117//67 113//67
f 59//68 113//68 114//68 60//68
f 57//69 111//69 113//69 59//69
f 58//70 112//70 111//70 57//70
f 116//71 118//71 117//71 115//71
f 112//72 116//72 115//72 111//72
f 114//73 118//73 116//73 112//73
f 113//74 117//74 118//74 114//74
